<svg xmlns="http://www.w3.org/2000/svg" width="300" height="59.1"><path fill="#FC8060" d="M11.1 8.4c-.6 0-.9.4-.9.9v1.8c0 .6.4.9.9.9.6 0 .9-.4.9-.9V9.2c.1-.5-.4-.8-.9-.8zm-3.9 2.1c-.4-.4-.9-.4-1.3 0s-.4.9 0 1.3L7.2 13c.1.1.4.3.6.3.1 0 .4-.1.6-.3.4-.3.4-.9.1-1.3l-1.3-1.2zm.2 5.2c0-.6-.4-.9-.9-.9H4.7c-.6 0-.9.4-.9.9 0 .4.4.9.9.9h1.8c.5.1.9-.3.9-.9zm-.2 2.6L6 19.6c-.4.4-.4.9 0 1.3.1.1.4.3.6.3.1 0 .4-.1.6-.3l1.4-1.3c.4-.4.4-.9 0-1.3-.4-.3-1.1-.3-1.4 0zm7.8-7.8l-1.4 1.3c-.3.4-.3 1 .1 1.3.1.1.4.3.6.3.1 0 .4-.1.6-.3l1.4-1.3c.4-.4.4-.9 0-1.3-.3-.3-.8-.3-1.3 0zm30.1-2.8c-.1-.1-4.1-4.4-6-6C38 .6 36.6 0 35.2 0c-2.8 0-4.5 1.4-5.4 4.7l-3.1 10.1h-4.4C21.8 9.1 17 4.5 11.2 4.5 5 4.7 0 9.6 0 15.7c0 6 4.5 10.6 10.2 11.1v26c0 3.5 2.8 6.4 6.4 6.4h13c.4 0 .6 0 1-.1h.1c.3-.1.6-.1.9-.3.1 0 .1-.1.1-.1.3-.1.6-.3.9-.4h.1c.3-.1.6-.4.9-.6h.4c.1 0 .1-.1.1-.1l.3-.3.1-.1.3-.3c.2-.2.1-.1.1-.3.1-.1.1-.1.1-.3.1-.1.1-.1.1-.3.1-.1.1-.3.1-.4 0-.1.1-.1.1-.3.1-.1.1-.3.1-.4s.1-.1.1-.3c.5-.3.5-.4.5-.6s0-.1.1-.1c0-.1.1-.4.1-.4V15.7c0-.6-.4-.9-.9-.9h-6.7l2.8-9.5C32.5 2.6 33.5 2 35.3 2c1 0 1.8.4 2.7 1.1 1.7 1.7 5.8 6 5.8 6 .4.4.9.4 1.3 0s.4-1 0-1.4zm-19 9l-.6 1.8H12.1v-1.8h14zm-15.9-1V25c-4.7-.4-8.4-4.4-8.4-9.2 0-5.1 4.1-9.2 9.2-9.2 4.8 0 8.7 3.7 9.2 8.4H11c-.4-.2-.8.3-.8.7zm24.1 37.1c0 .3 0 .6-.1.9v.3c-.1.3-.1.6-.3.9v.1c-.1.3-.3.4-.4.7 0 0 0 .1-.1.1l-.6.6-.1.1c-.1.1-.4.3-.6.4-.2.1-.2.1-.3.1-.1.1-.3.1-.4.3-.1 0-.1.1-.3.1-.1.1-.4.1-.6.1-.1 0-.1.1-.3.1-.3.1-.6.1-.9.1H16.5c-2.6 0-4.7-2.1-4.7-4.7V41.4c1.8 1.1 4.1 2.3 6.4 2.3 2.7 0 4.7-1.6 6.5-3 1.8-1.4 3.4-2.7 5.4-2.7 1.4 0 2.4.4 3.7 1.4l.5 13.4zm0-36.1v20.4c-1-.6-2.1-1-3.7-1-2.7 0-4.7 1.6-6.5 3-1.8 1.4-3.4 2.7-5.4 2.7-2.1 0-4.3-1.1-6.2-2.4l-.3-.1v-19h13l-4.7 15.2c-.1.4.1 1 .6 1.1h.3c.4 0 .7-.3.9-.6l6-19.3h6zm-4.7 3.6h1.8c.6 0 .9-.4.9-.9 0-.4-.4-.9-.9-.9h-1.8c-.6 0-.9.4-.9.9.1.5.4.9.9.9zm-11 34.3c-3.4 0-3.7-1.6-3.7-2.8v-5.5c0-.6-.4-.9-.9-.9-.6 0-.9.4-.9.9v5.5c0 1.7.7 4.7 5.5 4.7.6 0 .9-.4.9-.9-.1-.6-.5-1-.9-1zm5.5 0h-1.8c-.6 0-.9.4-.9.9 0 .6.4.9.9.9h1.8c.6 0 .9-.4.9-.9.1-.5-.5-.9-.9-.9zm50.4.7c-3.4 2.3-7.2 3.8-12.3 3.8-10.6 0-16.7-8.7-16.7-19.3v-2.3h5.4c.3-6.3 4.3-12.5 10.9-12.5 3.3 0 5.2.7 7.2 2.1l1.4-2.7c-2.7-1.6-5.4-2.3-8.9-2.3-7.7 0-12.3 5.8-13.8 12.6h-2.1c1.6-7.9 7-14.8 15.9-14.8 4.8 0 8.4 1.3 11.8 3.8l-3.5 6.4c-2.7-1.8-4.4-3-8.1-3-5.7 0-8.9 6.1-8.9 12.1v.6h-5.4v.2c0 8.9 4.8 17.2 14.6 17.2 3.4 0 6.4-.9 9.5-2.4l-1.4-2.7c-2.1 1.3-4.8 2.3-7.8 2.3-7 0-10.6-5.4-11.3-11.5h2c.7 5 3.5 9.4 9.2 9.4 3.3 0 6.1-1.4 8.7-3.1l3.6 6.1zm38.7-15.9c0 10.8-6.1 19.7-16.7 19.7-10.8 0-16.7-8.9-16.7-19.7s6.1-19.7 16.7-19.7h1.1v5.1c7.1.7 10.4 7.8 10.4 14.6 0 7.1-3.5 14.6-11.5 14.6C88.7 54 85 46.5 85 39.4c0-5.5 2.3-11.5 7.1-13.8V28c-3.5 2.3-5 7.2-5 11.3 0 5.4 2.4 12.5 9.4 12.5s9.4-7.1 9.4-12.5S103.3 27 96.5 27c-.4 0-.7 0-1.1.1V22c-9.4.7-13.6 9.1-13.6 17.4 0 8.8 4.5 17.6 14.6 17.6S111 48.2 111 39.4c0-7.4-3.3-14.8-10.4-16.9v-2.3c8.1 2.2 12.6 10.2 12.6 19.2zm35.3 15.9c-3.4 2.3-7.2 3.8-12.3 3.8-10.6 0-16.7-8.7-16.7-19.3v-2.3h5.4c.4-6.4 4.4-12.6 11.1-12.6 3.3 0 5.2.7 7.2 2.1l1.4-2.7c-2.7-1.6-5.4-2.3-8.9-2.3-7.7 0-12.3 5.8-13.8 12.6h-2.1c1.6-7.9 7-14.8 15.9-14.8 4.8 0 8.4 1.3 11.8 3.8L144 30c-2.7-1.8-4.4-3-8.1-3-5.7 0-8.9 6.1-8.9 12.1v.6h-5.4v.3c0 8.9 4.8 17.2 14.6 17.2 3.4 0 6.4-.9 9.5-2.4l-1.4-2.7c-2.1 1.3-4.8 2.3-7.8 2.3-7 0-10.6-5.4-11.3-11.5h2.1c.7 5 3.5 9.4 9.2 9.4 3.3 0 6.1-1.4 8.7-3.1l3.3 6.1zm37.7 3.3h-9.8l-10.2-11.9v-3.3l11.2 13.2h4.1l-15.3-17.7 13.9-16.2h-4l-13 15.2v20.7h-7.5V20.3h7.5v9.6l-2.1 2.6V22.4h-3.3v33.9h3.3V37.2l14.3-16.7h9.6l-15.7 18.3 17 19.8zm30.7-38.2v7.2h-6.8v-2.1h4.5v-3h-7.8v36.2h-7.5V22.6h-7.8v3h4.7v2.1h-6.8v-7.2h12.2v36.2h3.3V20.4h12zm36.6 38.2h-7.8l-3.4-9.5H224l-2.7 7.4h3.3l1.7-4.5h2.3l-2.4 6.7h-7.8l4.3-11.6H244l3.4 9.5h3.3l-12.3-33.9h-4.5L226.5 42h13l-3.8-10.4-2.7 7.5h-2.3l5-13.8 6.8 18.9h-19.1l8.7-23.7h7.5l13.9 38.1zm9.1-31.1v28.9h3.3v-26h2.1v28.1h-7.5V25.4h5.4v-3h-5.4v-2.1h7.5v7.2h-5.4zm37.4 24v7.2h-21.1v-2.1h19v-3h-19V20.4h7.5v28.1h-2.1v-26H281v28.9h19z"/></svg>